# xmcd
# Copyright (C) 1995-1998 Ti Kan
#
# Track frame offsets:
#       150
#       21448
#       39631
#       59542
#       102557
#       129779
#       149868
#       170509
#       189659
#       200538
#       219503
#
# Disc length: 4104 seconds
#
# Revision: 0
# Processed by: cddbd v1.5.2PL0 Copyright (c) Steve Scherf et al.
# Submitted via: CD-Import v1.0
#
DISCID=ae10060b
DTITLE=Sonic Youth - Washing Machine
DYEAR=1995
DGENRE=
TTITLE0=Becuz
TTITLE1=Junkie's Promise
TTITLE2=Saucer-Like
TTITLE3=Washing Machine
TTITLE4=Unwind
TTITLE5=Little Trouble Girl
TTITLE6=No Queen Blues
TTITLE7=Panty Lies
TTITLE8=Bonus Track
TTITLE9=Skip Tracer
TTITLE10=The Diamond Sea
EXTD=
EXTT0=
EXTT1=
EXTT2=
EXTT3=
EXTT4=
EXTT5=
EXTT6=
EXTT7=
EXTT8=
EXTT9=
EXTT10=
PLAYORDER=
